<svg width="20" height="20" viewBox="0 0 20 20" fill="none" xmlns="http://www.w3.org/2000/svg">
<path d="M5.83301 7.50828L5.84134 7.49902" stroke="#FCFCFC" stroke-width="1.25" stroke-linecap="round" stroke-linejoin="round"/>
<path d="M9.16699 7.50828L9.17533 7.49902" stroke="#FCFCFC" stroke-width="1.25" stroke-linecap="round" stroke-linejoin="round"/>
<path d="M5.83301 10.8415L5.84134 10.8323" stroke="#FCFCFC" stroke-width="1.25" stroke-linecap="round" stroke-linejoin="round"/>
<path d="M9.16699 10.8415L9.17533 10.8323" stroke="#FCFCFC" stroke-width="1.25" stroke-linecap="round" stroke-linejoin="round"/>
<path d="M5.83301 14.1749L5.84134 14.1656" stroke="#FCFCFC" stroke-width="1.25" stroke-linecap="round" stroke-linejoin="round"/>
<path d="M9.16699 14.1749L9.17533 14.1656" stroke="#FCFCFC" stroke-width="1.25" stroke-linecap="round" stroke-linejoin="round"/>
<path d="M12.5 17.5H3C2.72386 17.5 2.5 17.2762 2.5 17V4.66667C2.5 4.39052 2.72386 4.16667 3 4.16667H7.5V3C7.5 2.72386 7.72386 2.5 8 2.5H12C12.2762 2.5 12.5 2.72386 12.5 3V7.5M12.5 17.5H17C17.2762 17.5 17.5 17.2762 17.5 17V8C17.5 7.72386 17.2762 7.5 17 7.5H12.5M12.5 17.5V14.1667M12.5 7.5V10.8333M12.5 14.1667V10.8333M12.5 14.1667H14.1667M12.5 10.8333H14.1667" stroke="#FCFCFC" stroke-width="1.25" stroke-linecap="round" stroke-linejoin="round"/>
</svg>
