<svg width="40" height="40" viewBox="0 0 40 40" fill="none" xmlns="http://www.w3.org/2000/svg">
<path d="M19.9997 3.33337C10.7997 3.33337 3.33301 10.8 3.33301 20C3.33301 29.2 10.7997 36.6667 19.9997 36.6667C29.1997 36.6667 36.6663 29.2 36.6663 20C36.6663 10.8 29.1997 3.33337 19.9997 3.33337ZM26.7163 20.8834L21.7163 25.8834C21.4663 26.1334 21.1497 26.25 20.833 26.25C20.5163 26.25 20.1997 26.1334 19.9497 25.8834C19.4663 25.4 19.4663 24.6 19.9497 24.1167L22.8163 21.25H14.1663C13.483 21.25 12.9163 20.6834 12.9163 20C12.9163 19.3167 13.483 18.75 14.1663 18.75H22.8163L19.9497 15.8834C19.4663 15.4 19.4663 14.6 19.9497 14.1167C20.433 13.6334 21.233 13.6334 21.7163 14.1167L26.7163 19.1167C27.1997 19.6 27.1997 20.4 26.7163 20.8834Z" fill="#18181B"/>
</svg>
