<svg width="32" height="32" viewBox="0 0 32 32" fill="none" xmlns="http://www.w3.org/2000/svg">
<path d="M25.3353 2.6665H12.002C10.5313 2.6665 9.33529 3.8625 9.33529 5.33317V13.3332H6.66862C5.19795 13.3332 4.00195 14.5292 4.00195 15.9998V27.9998C4.00195 28.3535 4.14243 28.6926 4.39248 28.9426C4.64253 29.1927 4.98166 29.3332 5.33529 29.3332H26.6686C27.0222 29.3332 27.3614 29.1927 27.6114 28.9426C27.8615 28.6926 28.002 28.3535 28.002 27.9998V5.33317C28.002 3.8625 26.806 2.6665 25.3353 2.6665ZM6.66862 15.9998H14.6686V26.6665H6.66862V15.9998ZM25.3353 26.6665H17.3353V15.9998C17.3353 14.5292 16.1393 13.3332 14.6686 13.3332H12.002V5.33317H25.3353V26.6665Z" fill="#A0A0AB"/>
<path d="M14.6673 8H17.334V10.6667H14.6673V8ZM20.0007 8H22.6673V10.6667H20.0007V8ZM20.0007 13.3747H22.6673V16H20.0007V13.3747ZM20.0007 18.6667H22.6673V21.3333H20.0007V18.6667ZM9.33398 18.668H12.0007V21.3347H9.33398V18.668Z" fill="#A0A0AB"/>
</svg>
