<svg width="48" height="48" viewBox="0 0 48 48" fill="none" xmlns="http://www.w3.org/2000/svg">
<rect x="0.5" y="0.5" width="48" height="48" rx="12" fill="#FAFAFA"/>
<rect x="0.5" y="0.5" width="48" height="48" rx="12" stroke="#E4E4E7"/>
<path d="M22.5 18H32.25M22.5 18C22.5 18.3978 22.342 18.7794 22.0607 19.0607C21.7794 19.342 21.3978 19.5 21 19.5C20.6022 19.5 20.2206 19.342 19.9393 19.0607C19.658 18.7794 19.5 18.3978 19.5 18M22.5 18C22.5 17.6022 22.342 17.2206 22.0607 16.9393C21.7794 16.658 21.3978 16.5 21 16.5C20.6022 16.5 20.2206 16.658 19.9393 16.9393C19.658 17.2206 19.5 17.6022 19.5 18M19.5 18H15.75M22.5 30H32.25M22.5 30C22.5 30.3978 22.342 30.7794 22.0607 31.0607C21.7794 31.342 21.3978 31.5 21 31.5C20.6022 31.5 20.2206 31.342 19.9393 31.0607C19.658 30.7794 19.5 30.3978 19.5 30M22.5 30C22.5 29.6022 22.342 29.2206 22.0607 28.9393C21.7794 28.658 21.3978 28.5 21 28.5C20.6022 28.5 20.2206 28.658 19.9393 28.9393C19.658 29.2206 19.5 29.6022 19.5 30M19.5 30H15.75M28.5 24H32.25M28.5 24C28.5 24.3978 28.342 24.7794 28.0607 25.0607C27.7794 25.342 27.3978 25.5 27 25.5C26.6022 25.5 26.2206 25.342 25.9393 25.0607C25.658 24.7794 25.5 24.3978 25.5 24M28.5 24C28.5 23.6022 28.342 23.2206 28.0607 22.9393C27.7794 22.658 27.3978 22.5 27 22.5C26.6022 22.5 26.2206 22.658 25.9393 22.9393C25.658 23.2206 25.5 23.6022 25.5 24M25.5 24H15.75" stroke="#70707B" stroke-width="1.5" stroke-linecap="round" stroke-linejoin="round"/>
</svg>
