<svg width="32" height="32" viewBox="0 0 32 32" fill="none" xmlns="http://www.w3.org/2000/svg">
<path d="M20.0672 6.66659C21.3695 6.92067 22.5664 7.5576 23.5046 8.49583C24.4429 9.43407 25.0798 10.6309 25.3339 11.9333M20.0672 1.33325C22.7729 1.63383 25.296 2.84548 27.2222 4.76926C29.1484 6.69304 30.3632 9.2146 30.6672 11.9199M29.3339 22.5599V26.5599C29.3354 26.9313 29.2593 27.2988 29.1106 27.639C28.9618 27.9793 28.7436 28.2847 28.47 28.5357C28.1964 28.7868 27.8733 28.9779 27.5216 29.0969C27.1698 29.2158 26.7971 29.26 26.4272 29.2266C22.3243 28.7808 18.3832 27.3788 14.9206 25.1333C11.699 23.0861 8.96768 20.3548 6.92056 17.1333C4.6672 13.6549 3.26489 9.69458 2.82723 5.57325C2.79391 5.20454 2.83773 4.83293 2.9559 4.48208C3.07406 4.13124 3.26399 3.80884 3.51358 3.53541C3.76318 3.26199 4.06697 3.04353 4.40562 2.89395C4.74426 2.74436 5.11035 2.66693 5.48056 2.66659H9.48056C10.1276 2.66022 10.755 2.88936 11.2456 3.3113C11.7362 3.73323 12.0567 4.31918 12.1472 4.95992C12.3161 6.24001 12.6292 7.49689 13.0806 8.70659C13.26 9.18382 13.2988 9.70247 13.1924 10.2011C13.0861 10.6997 12.839 11.1574 12.4806 11.5199L10.7872 13.2133C12.6853 16.5513 15.4492 19.3152 18.7872 21.2133L20.4806 19.5199C20.8431 19.1614 21.3008 18.9144 21.7994 18.808C22.298 18.7017 22.8167 18.7405 23.2939 18.9199C24.5036 19.3713 25.7605 19.6844 27.0406 19.8533C27.6883 19.9446 28.2798 20.2709 28.7026 20.7699C29.1254 21.269 29.3501 21.906 29.3339 22.5599Z" stroke="#A0A0AB" stroke-width="2.66667" stroke-linecap="round" stroke-linejoin="round"/>
</svg>
