<svg width="32" height="32" viewBox="0 0 32 32" fill="none" xmlns="http://www.w3.org/2000/svg">
<path d="M20 6.63037C18.5267 6.63037 17.3333 7.8237 17.3333 9.29704V14.6304C17.3333 16.1037 18.5267 17.297 20 17.297H24.013L19.6146 23.2059C18.9613 24.0846 19.5876 25.3335 20.6849 25.3335C21.1062 25.3335 21.5006 25.1357 21.7526 24.797L27.474 17.1121C27.8153 16.6521 28 16.0943 28 15.521V9.29704C28 7.8237 26.8067 6.63037 25.3333 6.63037H20ZM6.66667 6.66683C5.19333 6.66683 4 7.86016 4 9.3335V14.6668C4 16.1402 5.19333 17.3335 6.66667 17.3335H10.6797L6.30729 23.2033C5.65396 24.0833 6.28027 25.3335 7.3776 25.3335C7.79894 25.3335 8.19592 25.1357 8.44792 24.797L14.1406 17.1486C14.482 16.6886 14.6667 16.1321 14.6667 15.5575V9.3335C14.6667 7.86016 13.4733 6.66683 12 6.66683H6.66667Z" fill="#18181B"/>
</svg>
